<?xml version="1.0" standalone="no"?>
<!DOCTYPE svg PUBLIC "-//W3C//DTD SVG 20010904//EN"
 "http://www.w3.org/TR/2001/REC-SVG-20010904/DTD/svg10.dtd">
<svg version="1.0" xmlns="http://www.w3.org/2000/svg"
 width="312.000000pt" height="312.000000pt" viewBox="0 0 312.000000 312.000000"
 preserveAspectRatio="xMidYMid meet">
<metadata>
Created by potrace 1.14, written by Peter Selinger 2001-2017
</metadata>
<g transform="translate(0.000000,312.000000) scale(0.100000,-0.100000)"
fill="#000000" stroke="none">
<path d="M657 2303 c-4 -3 -20 -6 -37 -5 -19 0 -28 -3 -24 -10 4 -6 -2 -6 -15
1 -16 9 -21 9 -21 0 0 -9 -3 -9 -14 0 -11 9 -15 8 -20 -5 -5 -12 -10 -13 -19
-6 -8 7 -18 7 -27 2 -8 -5 -18 -6 -22 -4 -4 3 -8 0 -8 -6 0 -7 -7 -10 -15 -6
-8 3 -15 1 -15 -4 0 -5 -7 -7 -15 -4 -10 4 -15 0 -15 -11 0 -14 -3 -15 -15 -5
-8 7 -15 8 -15 3 0 -5 -12 -16 -27 -24 -15 -8 -35 -20 -43 -27 -8 -7 -18 -11
-22 -10 -3 2 -16 -9 -28 -25 -12 -15 -26 -25 -31 -22 -5 4 -6 0 -3 -8 3 -9 -3
-17 -17 -20 -13 -4 -20 -9 -17 -12 3 -3 -8 -19 -24 -35 -16 -17 -27 -34 -24
-39 3 -5 -1 -12 -10 -15 -8 -3 -12 -10 -9 -16 3 -5 1 -10 -4 -10 -6 0 -11 -7
-11 -15 0 -8 -5 -15 -11 -15 -6 0 -8 -9 -4 -21 5 -13 3 -19 -3 -15 -9 6 -25
-42 -25 -76 0 -10 -4 -18 -8 -18 -10 0 -10 -509 -1 -525 4 -5 7 -17 9 -25 1
-8 6 -16 12 -18 5 -2 8 -9 5 -17 -3 -7 0 -16 5 -20 6 -3 9 -11 6 -16 -4 -5 -1
-9 5 -9 6 0 8 -4 5 -10 -3 -5 -2 -10 4 -10 8 0 27 -40 22 -48 -3 -6 24 -30 30
-26 4 2 10 -3 13 -12 4 -10 2 -13 -7 -8 -6 4 6 -9 27 -29 22 -20 44 -37 49
-37 4 0 6 -3 4 -7 -6 -9 13 -27 32 -31 7 -1 24 -15 37 -30 14 -15 23 -20 19
-12 -5 12 -4 12 7 -1 7 -9 21 -15 31 -13 14 2 16 -1 7 -11 -9 -11 -7 -12 11
-8 19 5 20 4 11 -14 -8 -15 -8 -23 1 -32 9 -10 9 -12 -3 -9 -8 2 -14 -3 -13
-9 2 -7 -3 -13 -10 -13 -8 0 -7 -4 3 -10 11 -7 11 -10 2 -10 -7 0 -10 -5 -7
-11 4 -5 -1 -19 -11 -30 -16 -17 -16 -22 -4 -29 11 -7 12 -10 2 -10 -7 0 -11
-4 -7 -9 3 -5 -1 -16 -9 -24 -8 -8 -13 -16 -11 -19 2 -2 -1 -21 -6 -43 -6 -22
-10 -48 -10 -58 0 -9 -3 -17 -7 -17 -4 0 -7 -17 -6 -37 3 -49 3 -50 12 -38 4
6 21 17 37 25 17 8 32 17 35 20 20 21 95 68 102 64 4 -3 8 -1 8 5 0 5 20 20
45 32 24 12 41 27 38 32 -4 6 0 8 10 4 9 -3 18 0 21 9 3 8 13 14 21 14 9 0 13
5 10 10 -5 9 -1 11 20 10 3 -1 13 6 21 15 9 8 37 29 62 47 26 18 56 40 66 50
11 10 26 18 33 18 7 0 13 5 13 10 0 6 5 10 11 10 5 0 7 -6 3 -12 -4 -8 -3 -10
2 -5 5 5 9 14 9 20 1 7 6 11 13 10 7 -2 12 2 12 8 0 6 7 9 15 5 8 -3 15 0 15
7 0 8 4 6 10 -3 9 -13 10 -13 10 0 0 13 1 13 11 0 8 -12 12 -12 16 -2 4 10 8
10 19 1 11 -9 14 -8 14 2 0 11 2 11 10 -1 7 -11 10 -11 10 -2 0 10 5 10 21 1
17 -9 20 -8 13 3 -6 11 -5 11 9 -1 13 -10 17 -10 17 -1 0 9 4 9 13 2 8 -7 18
-7 27 -2 9 5 19 5 27 -2 9 -7 13 -7 13 2 0 10 3 10 15 0 12 -10 15 -10 15 1 0
12 2 12 9 0 5 -8 11 -9 15 -3 7 11 24 11 44 -1 7 -5 12 -3 12 3 0 6 5 8 11 4
17 -10 52 -11 72 -2 11 6 17 5 17 -4 0 -9 3 -9 10 2 8 12 10 12 10 1 0 -11 3
-11 15 -1 14 12 20 7 15 -15 -1 -5 8 -1 19 9 14 13 21 15 21 6 0 -10 4 -9 17
1 15 12 16 12 8 -1 -8 -13 -7 -13 8 -1 9 7 17 9 17 4 0 -5 9 -9 20 -10 12 -1
18 3 14 9 -4 6 2 6 15 -1 16 -9 21 -9 21 1 0 9 3 9 11 -2 8 -12 12 -12 16 -2
4 10 8 10 19 1 11 -9 14 -8 14 2 0 12 2 12 9 0 6 -9 10 -10 16 -2 5 9 10 9 21
0 11 -9 14 -8 14 2 0 11 3 11 11 -1 8 -11 12 -12 16 -2 2 6 10 9 16 5 17 -11
49 -14 43 -5 -2 4 4 8 14 8 10 0 17 -4 14 -8 -2 -4 5 -6 16 -5 11 1 20 5 20
10 0 5 7 4 15 -3 12 -10 15 -10 15 1 0 9 3 10 8 3 9 -13 52 -13 52 1 0 5 4 4
9 -4 8 -12 12 -12 24 -2 11 8 17 9 22 1 5 -8 11 -8 19 -1 9 7 16 7 24 -1 9 -9
12 -9 12 3 0 8 3 10 8 4 4 -5 14 -10 22 -10 8 0 18 5 22 10 5 6 8 5 8 -4 0
-10 3 -11 13 -2 8 6 17 7 21 3 11 -10 30 -9 38 3 5 6 8 6 8 -2 0 -7 9 -13 20
-13 11 0 20 -4 20 -10 0 -5 5 -10 12 -10 6 0 23 -10 37 -22 22 -20 23 -20 12
-3 -8 11 0 6 17 -12 20 -20 38 -30 48 -26 9 3 14 0 12 -8 -2 -8 3 -13 10 -11
6 1 12 -5 12 -13 0 -8 3 -14 8 -14 21 4 34 -2 29 -14 -3 -8 4 -14 16 -15 12 0
23 -6 25 -12 2 -5 10 -10 18 -10 9 0 12 -5 8 -12 -4 -6 -3 -8 4 -4 6 3 17 -1
25 -9 9 -8 20 -15 26 -15 6 0 11 -4 11 -10 0 -5 5 -10 11 -10 7 0 18 -8 26
-17 10 -12 12 -13 8 -3 -4 8 3 5 14 -8 12 -14 25 -20 32 -16 8 4 9 3 5 -4 -4
-7 -1 -12 8 -12 9 0 16 -4 16 -10 0 -5 7 -10 16 -10 8 0 12 -5 9 -10 -3 -6 3
-10 14 -10 11 0 23 -5 27 -12 5 -7 3 -8 -6 -3 -8 5 -11 4 -6 -3 4 -6 13 -9 21
-5 9 3 15 -1 15 -11 0 -9 5 -16 11 -16 5 0 7 6 3 13 -6 9 -5 9 7 0 8 -7 20 -8
28 -4 14 9 14 17 0 44 -6 11 -6 17 1 17 7 0 6 8 -1 23 -29 55 -31 59 -19 52 6
-4 4 7 -5 25 -15 28 -24 67 -27 108 -1 6 -5 12 -10 12 -5 0 -6 5 -3 10 3 6 0
10 -7 10 -9 0 -9 3 2 10 8 5 10 10 3 10 -6 0 -9 9 -6 20 3 11 1 20 -4 20 -5 0
-10 11 -11 25 -2 23 30 53 51 47 4 -1 7 2 7 8 0 6 6 9 13 8 6 -2 11 2 10 9 -2
7 4 10 12 7 8 -4 15 -1 15 6 0 6 5 8 10 5 6 -3 10 1 10 9 0 9 6 16 14 16 8 0
17 7 20 16 3 9 11 12 18 8 8 -5 9 -2 5 9 -4 10 -2 16 6 14 7 -1 11 4 9 12 -3
12 0 12 13 1 13 -11 15 -10 10 3 -4 8 -1 18 4 22 6 3 8 11 5 17 -4 7 -2 8 5 4
8 -5 16 3 24 23 6 17 14 31 18 31 7 0 23 50 21 63 -1 4 2 7 7 7 10 0 26 65 23
93 -1 9 2 17 6 17 5 0 8 10 7 23 -1 12 3 28 9 36 8 11 8 13 -1 7 -16 -9 -16
-5 -3 28 6 16 6 27 -1 31 -5 4 -7 11 -4 16 12 18 14 49 4 49 -6 0 -7 6 -2 13
10 16 11 77 1 83 -4 3 -3 14 2 25 7 12 7 19 1 19 -7 0 -7 9 -1 25 5 14 6 25 2
25 -5 0 -9 15 -9 33 0 17 -4 41 -8 51 -7 15 -5 17 6 11 12 -8 12 -6 1 8 -8 9
-11 21 -7 27 3 5 1 10 -6 10 -6 0 -9 8 -6 20 3 11 0 20 -6 20 -6 0 -7 3 -4 7
4 3 -1 15 -10 26 -10 11 -12 17 -5 13 6 -4 12 -2 12 3 0 6 -7 11 -16 11 -14 0
-14 3 -4 15 9 11 9 15 1 15 -6 0 -16 11 -21 25 -5 14 -14 25 -20 25 -6 0 -8 4
-5 10 3 5 1 10 -5 10 -6 0 -8 5 -5 10 3 6 -1 10 -10 10 -9 0 -19 9 -22 20 -5
18 -15 24 -36 21 -4 0 -6 2 -6 6 3 20 -2 33 -14 33 -7 0 -20 9 -30 20 -10 12
-22 18 -27 15 -6 -3 -10 0 -10 8 0 14 -75 53 -92 49 -5 -1 -8 3 -8 10 0 6 -3
9 -6 5 -4 -3 -18 0 -33 7 -14 7 -34 12 -43 11 -10 -2 -18 0 -18 4 0 7 -31 11
-83 11 -15 0 -38 5 -50 11 -20 11 -21 11 -9 -4 12 -14 11 -15 -15 -8 -15 4
-41 6 -56 4 -22 -3 -27 -1 -21 9 4 7 -2 5 -13 -5 -12 -11 -24 -14 -27 -9 -3 6
-16 8 -28 4 -16 -4 -19 -2 -13 9 5 8 -2 5 -15 -6 -13 -11 -20 -14 -16 -7 6 10
3 13 -10 11 -11 -2 -25 0 -33 5 -10 7 -12 6 -6 -4 6 -10 2 -11 -19 -6 -21 5
-26 4 -20 -6 5 -10 4 -11 -7 0 -16 15 -43 16 -33 1 4 -8 1 -8 -12 -2 -11 5
-26 9 -34 8 -8 -1 -21 4 -29 9 -12 9 -13 8 -6 -3 6 -11 2 -13 -19 -7 -18 4
-25 3 -21 -3 3 -7 0 -8 -9 -5 -9 3 -13 11 -9 18 4 7 1 6 -9 -2 -17 -13 -94
-12 -117 2 -9 6 -12 5 -7 -2 3 -6 2 -13 -4 -17 -5 -3 -10 -3 -10 2 0 4 -18 8
-39 9 -25 0 -37 -4 -33 -10 3 -6 -2 -5 -12 3 -15 13 -19 13 -27 0 -5 -8 -9 -9
-9 -2 0 6 -8 9 -19 6 -10 -3 -22 0 -26 7 -5 8 -10 8 -21 -1 -11 -9 -18 -8 -31
2 -11 10 -14 10 -9 2 5 -9 0 -13 -13 -13 -12 0 -21 5 -21 12 0 6 -6 4 -13 -7
-11 -14 -16 -15 -22 -5 -6 9 -4 11 5 5 9 -5 11 -4 6 4 -4 6 -13 8 -19 4 -19
-12 -58 -13 -51 -1 5 7 2 8 -7 3 -20 -13 -58 -15 -65 -4 -3 6 -11 6 -17 1 -15
-10 -27 -10 -46 2 -10 6 -12 5 -7 -2 8 -14 -20 -12 -43 2 -9 6 -12 5 -7 -2 4
-8 -4 -10 -26 -7 -18 2 -38 0 -44 -6 -8 -7 -15 -6 -20 2 -5 8 -3 9 6 4 9 -5
11 -4 6 3 -4 7 -14 9 -24 4 -19 -9 -69 -8 -78 1 -4 4 -15 2 -25 -4 -14 -7 -19
-6 -19 2 0 8 -4 8 -12 1 -7 -5 -22 -6 -33 -2 -11 4 -29 3 -40 -3 -13 -7 -20
-7 -23 1 -3 9 -9 9 -24 1 -16 -8 -19 -8 -13 1 6 9 2 9 -14 1 -14 -8 -21 -8
-21 -1 0 7 -7 7 -21 -1 -17 -8 -23 -8 -29 1 -5 8 -13 9 -21 4 -20 -12 -39 -14
-39 -3 0 5 -12 4 -27 -2 -19 -7 -28 -6 -33 2 -6 8 -9 7 -13 -2 -5 -12 -6 -12
-6 0 -1 11 -6 10 -26 -3 -21 -14 -24 -14 -19 -1 6 16 2 20 -9 8z"/>
</g>
</svg>
